<?xml version="1.0" encoding="UTF-8"?>
<svg xmlns="http://www.w3.org/2000/svg" width="1908" height="330" viewBox="0 0 1908 330" role="img" aria-labelledby="lab17-title lab17-desc">
  <title id="lab17-title">LAB-17 architecture: Create VNets, subnets, peerings, and public IPs</title>
  <desc id="lab17-desc">Left-to-right service topology with 9 components and 10 directed relationships. Components: Operator and Azure CLI, Hub VNet, Hub-to-spoke peering, Spoke VNet and subnets, Spoke-to-hub peering, Standard static public IP, Controlled public edge, CIDR and peering assertions, Peering before VNet cleanup. Relationships: Operator and Azure CLI to Hub VNet; Hub VNet to Hub-to-spoke peering; Hub-to-spoke peering to Spoke VNet and subnets; Spoke VNet and subnets to Spoke-to-hub peering; Spoke-to-hub peering to Hub VNet; Standard static public IP to Controlled public edge; Hub VNet to CIDR and peering assertions; Spoke VNet and subnets to CIDR and peering assertions; Controlled public edge to CIDR and peering assertions; CIDR and peering assertions to Peering before VNet cleanup.</desc>
  <metadata id="lab17-metadata">{&quot;renderer&quot;:&quot;az104-mermaid-flowchart-svg/1.0.0&quot;,&quot;source&quot;:&quot;architecture.mmd&quot;,&quot;sourceSha256&quot;:&quot;966e2b95a33afc718fa151a91b95d63b8e53a011e7fcf2aadce3b9eccb5a949c&quot;}</metadata>
  <defs>
    <marker id="arrow" markerWidth="10" markerHeight="8" refX="9" refY="4" orient="auto" markerUnits="strokeWidth">
      <path d="M 0 0 L 10 4 L 0 8 z" fill="#57606a"/>
    </marker>
    <style>
      .edge { fill: none; stroke: #57606a; stroke-width: 2; marker-end: url(#arrow); }
      .edge-label-bg { fill: #ffffff; opacity: .94; }
      .edge-label { fill: #57606a; font: 13px 'Segoe UI', Arial, sans-serif; text-anchor: middle; dominant-baseline: central; }
      .node-label { font: 600 15px 'Segoe UI', Arial, sans-serif; text-anchor: middle; dominant-baseline: central; }
    </style>
  </defs>
  <rect width="100%" height="100%" fill="#ffffff"/>
  <g aria-hidden="true">
    <path class="edge" d="M 324 114 C 384 114, 384 114, 444 114"/>
    <path class="edge" d="M 704 114 C 764 114, 764 114, 824 114"/>
    <path class="edge" d="M 1084 114 C 1144 114, 1144 114, 1204 114"/>
    <path class="edge" d="M 1464 114 C 1524 114, 1524 165, 1584 165"/>
    <path class="edge" d="M 1584 165 C 1534 243, 754 243, 704 114"/>
    <path class="edge" d="M 324 216 C 384 216, 384 216, 444 216"/>
    <path class="edge" d="M 704 114 C 764 114, 764 216, 824 216"/>
    <path class="edge" d="M 1204 114 C 1154 294, 1134 294, 1084 216"/>
    <path class="edge" d="M 704 216 C 764 216, 764 216, 824 216"/>
    <path class="edge" d="M 1084 216 C 1144 216, 1144 216, 1204 216"/>
    <rect x="64" y="80" width="260" height="68" rx="10" fill="#e8f1ff" stroke="#2563eb"/>
    <text x="194" y="114" class="node-label" fill="#102a43">Operator and Azure CLI</text>
    <rect x="444" y="80" width="260" height="68" rx="10" fill="#e9f8ef" stroke="#16803a"/>
    <text x="574" y="114" class="node-label" fill="#102a43">Hub VNet</text>
    <rect x="824" y="80" width="260" height="68" rx="10" fill="#e9f8ef" stroke="#16803a"/>
    <text x="954" y="114" class="node-label" fill="#102a43">Hub-to-spoke peering</text>
    <rect x="1204" y="80" width="260" height="68" rx="10" fill="#e9f8ef" stroke="#16803a"/>
    <text x="1334" y="114" class="node-label" fill="#102a43">Spoke VNet and subnets</text>
    <rect x="1584" y="131" width="260" height="68" rx="10" fill="#e9f8ef" stroke="#16803a"/>
    <text x="1714" y="165" class="node-label" fill="#102a43">Spoke-to-hub peering</text>
    <rect x="64" y="182" width="260" height="68" rx="10" fill="#e9f8ef" stroke="#16803a"/>
    <text x="194" y="216" class="node-label" fill="#102a43">Standard static public IP</text>
    <rect x="444" y="182" width="260" height="68" rx="10" fill="#e9f8ef" stroke="#16803a"/>
    <text x="574" y="216" class="node-label" fill="#102a43">Controlled public edge</text>
    <rect x="824" y="182" width="260" height="68" rx="10" fill="#e8f1ff" stroke="#2563eb"/>
    <text x="954" y="216" class="node-label" fill="#102a43">CIDR and peering assertions</text>
    <rect x="1204" y="182" width="260" height="68" rx="10" fill="#e8f1ff" stroke="#2563eb"/>
    <text x="1334" y="216" class="node-label" fill="#102a43">Peering before VNet cleanup</text>
  </g>
</svg>
