<?xml version="1.0" encoding="UTF-8"?>
<svg xmlns="http://www.w3.org/2000/svg" width="1908" height="432" viewBox="0 0 1908 432" role="img" aria-labelledby="lab16-title lab16-desc">
  <title id="lab16-title">LAB-16 architecture: Configure App Service TLS, DNS, backup, and networking</title>
  <desc id="lab16-desc">Left-to-right service topology with 10 components and 9 directed relationships. Components: Operator and Azure CLI, HTTPS-only App Service, TLS and managed certificate, Delegated VNet subnet, Backup configuration, Transient redacted SAS, Private Blob container, Owned hostname gate, TLS, DNS, backup, and VNet assertions, Secret-free cleanup. Relationships: Operator and Azure CLI to HTTPS-only App Service; HTTPS-only App Service to TLS and managed certificate; HTTPS-only App Service to Delegated VNet subnet; HTTPS-only App Service to Backup configuration; Backup configuration to Transient redacted SAS; Transient redacted SAS to Private Blob container; Owned hostname gate to TLS and managed certificate; HTTPS-only App Service to TLS, DNS, backup, and VNet assertions; TLS, DNS, backup, and VNet assertions to Secret-free cleanup.</desc>
  <metadata id="lab16-metadata">{&quot;renderer&quot;:&quot;az104-mermaid-flowchart-svg/1.0.0&quot;,&quot;source&quot;:&quot;architecture.mmd&quot;,&quot;sourceSha256&quot;:&quot;e02d81c139127fa42df74fbaf54886abf4e8b4df4b7a71d3180faba4a90f9dd6&quot;}</metadata>
  <defs>
    <marker id="arrow" markerWidth="10" markerHeight="8" refX="9" refY="4" orient="auto" markerUnits="strokeWidth">
      <path d="M 0 0 L 10 4 L 0 8 z" fill="#57606a"/>
    </marker>
    <style>
      .edge { fill: none; stroke: #57606a; stroke-width: 2; marker-end: url(#arrow); }
      .edge-label-bg { fill: #ffffff; opacity: .94; }
      .edge-label { fill: #57606a; font: 13px 'Segoe UI', Arial, sans-serif; text-anchor: middle; dominant-baseline: central; }
      .node-label { font: 600 15px 'Segoe UI', Arial, sans-serif; text-anchor: middle; dominant-baseline: central; }
    </style>
  </defs>
  <rect width="100%" height="100%" fill="#ffffff"/>
  <g aria-hidden="true">
    <path class="edge" d="M 324 165 C 384 165, 384 165, 444 165"/>
    <path class="edge" d="M 574 199 C 608 216, 608 216, 574 233"/>
    <path class="edge" d="M 704 165 C 764 165, 764 114, 824 114"/>
    <path class="edge" d="M 704 165 C 764 165, 764 216, 824 216"/>
    <path class="edge" d="M 1084 216 C 1144 216, 1144 165, 1204 165"/>
    <path class="edge" d="M 1464 165 C 1524 165, 1524 216, 1584 216"/>
    <path class="edge" d="M 324 267 C 384 267, 384 267, 444 267"/>
    <path class="edge" d="M 704 165 C 764 165, 764 318, 824 318"/>
    <path class="edge" d="M 1084 318 C 1144 318, 1144 267, 1204 267"/>
    <rect x="64" y="131" width="260" height="68" rx="10" fill="#e8f1ff" stroke="#2563eb"/>
    <text x="194" y="165" class="node-label" fill="#102a43">Operator and Azure CLI</text>
    <rect x="444" y="131" width="260" height="68" rx="10" fill="#e9f8ef" stroke="#16803a"/>
    <text x="574" y="165" class="node-label" fill="#102a43">HTTPS-only App Service</text>
    <rect x="444" y="233" width="260" height="68" rx="10" fill="#e9f8ef" stroke="#16803a"/>
    <text x="574" y="267" class="node-label" fill="#102a43">TLS and managed certificate</text>
    <rect x="824" y="80" width="260" height="68" rx="10" fill="#e9f8ef" stroke="#16803a"/>
    <text x="954" y="114" class="node-label" fill="#102a43">Delegated VNet subnet</text>
    <rect x="824" y="182" width="260" height="68" rx="10" fill="#e9f8ef" stroke="#16803a"/>
    <text x="954" y="216" class="node-label" fill="#102a43">Backup configuration</text>
    <rect x="1204" y="131" width="260" height="68" rx="10" fill="#e8f1ff" stroke="#2563eb"/>
    <text x="1334" y="165" class="node-label" fill="#102a43">Transient redacted SAS</text>
    <rect x="1584" y="182" width="260" height="68" rx="10" fill="#e9f8ef" stroke="#16803a"/>
    <text x="1714" y="216" class="node-label" fill="#102a43">Private Blob container</text>
    <rect x="64" y="233" width="260" height="68" rx="10" fill="#e9f8ef" stroke="#16803a"/>
    <text x="194" y="267" class="node-label" fill="#102a43">Owned hostname gate</text>
    <rect x="824" y="284" width="260" height="68" rx="10" fill="#e8f1ff" stroke="#2563eb"/>
    <text x="954" y="318" class="node-label" fill="#102a43">TLS, DNS, backup, and VNet assertions</text>
    <rect x="1204" y="233" width="260" height="68" rx="10" fill="#e8f1ff" stroke="#2563eb"/>
    <text x="1334" y="267" class="node-label" fill="#102a43">Secret-free cleanup</text>
  </g>
</svg>
