<?xml version="1.0" encoding="UTF-8"?>
<svg xmlns="http://www.w3.org/2000/svg" width="2288" height="330" viewBox="0 0 2288 330" role="img" aria-labelledby="lab12-title lab12-desc">
  <title id="lab12-title">LAB-12 architecture: Design VM resilience, scale sets, and mobility</title>
  <desc id="lab12-desc">Left-to-right service topology with 9 components and 9 directed relationships. Components: Operator and Azure CLI, Source tagged resource group, Availability set and VM, VM scale set, Autoscale profile, VM dependency move, Destination tagged resource group, Placement and scale assertions, Two-boundary cleanup. Relationships: Operator and Azure CLI to Source tagged resource group; Source tagged resource group to Availability set and VM; Source tagged resource group to VM scale set; VM scale set to Autoscale profile; Availability set and VM to VM dependency move; VM dependency move to Destination tagged resource group; Autoscale profile to Placement and scale assertions; Destination tagged resource group to Placement and scale assertions; Placement and scale assertions to Two-boundary cleanup.</desc>
  <metadata id="lab12-metadata">{&quot;renderer&quot;:&quot;az104-mermaid-flowchart-svg/1.0.0&quot;,&quot;source&quot;:&quot;architecture.mmd&quot;,&quot;sourceSha256&quot;:&quot;9bad19fb53560b79deaa1001649f0d1dc97ea69ac0c3507eb22aea575aa7cbb0&quot;}</metadata>
  <defs>
    <marker id="arrow" markerWidth="10" markerHeight="8" refX="9" refY="4" orient="auto" markerUnits="strokeWidth">
      <path d="M 0 0 L 10 4 L 0 8 z" fill="#57606a"/>
    </marker>
    <style>
      .edge { fill: none; stroke: #57606a; stroke-width: 2; marker-end: url(#arrow); }
      .edge-label-bg { fill: #ffffff; opacity: .94; }
      .edge-label { fill: #57606a; font: 13px 'Segoe UI', Arial, sans-serif; text-anchor: middle; dominant-baseline: central; }
      .node-label { font: 600 15px 'Segoe UI', Arial, sans-serif; text-anchor: middle; dominant-baseline: central; }
    </style>
  </defs>
  <rect width="100%" height="100%" fill="#ffffff"/>
  <g aria-hidden="true">
    <path class="edge" d="M 324 165 C 384 165, 384 165, 444 165"/>
    <path class="edge" d="M 704 165 C 764 165, 764 114, 824 114"/>
    <path class="edge" d="M 704 165 C 764 165, 764 216, 824 216"/>
    <path class="edge" d="M 1084 216 C 1144 216, 1144 114, 1204 114"/>
    <path class="edge" d="M 1084 114 C 1144 114, 1144 216, 1204 216"/>
    <path class="edge" d="M 1464 216 C 1524 216, 1524 114, 1584 114"/>
    <path class="edge" d="M 1464 114 C 1524 114, 1524 216, 1584 216"/>
    <path class="edge" d="M 1714 148 C 1748 165, 1748 165, 1714 182"/>
    <path class="edge" d="M 1844 216 C 1904 216, 1904 165, 1964 165"/>
    <rect x="64" y="131" width="260" height="68" rx="10" fill="#e8f1ff" stroke="#2563eb"/>
    <text x="194" y="165" class="node-label" fill="#102a43">Operator and Azure CLI</text>
    <rect x="444" y="131" width="260" height="68" rx="10" fill="#e9f8ef" stroke="#16803a"/>
    <text x="574" y="165" class="node-label" fill="#102a43">Source tagged resource group</text>
    <rect x="824" y="80" width="260" height="68" rx="10" fill="#e9f8ef" stroke="#16803a"/>
    <text x="954" y="114" class="node-label" fill="#102a43">Availability set and VM</text>
    <rect x="824" y="182" width="260" height="68" rx="10" fill="#e9f8ef" stroke="#16803a"/>
    <text x="954" y="216" class="node-label" fill="#102a43">VM scale set</text>
    <rect x="1204" y="80" width="260" height="68" rx="10" fill="#e9f8ef" stroke="#16803a"/>
    <text x="1334" y="114" class="node-label" fill="#102a43">Autoscale profile</text>
    <rect x="1204" y="182" width="260" height="68" rx="10" fill="#e8f1ff" stroke="#2563eb"/>
    <text x="1334" y="216" class="node-label" fill="#102a43">VM dependency move</text>
    <rect x="1584" y="80" width="260" height="68" rx="10" fill="#e9f8ef" stroke="#16803a"/>
    <text x="1714" y="114" class="node-label" fill="#102a43">Destination tagged resource group</text>
    <rect x="1584" y="182" width="260" height="68" rx="10" fill="#e8f1ff" stroke="#2563eb"/>
    <text x="1714" y="216" class="node-label" fill="#102a43">Placement and scale assertions</text>
    <rect x="1964" y="131" width="260" height="68" rx="10" fill="#e8f1ff" stroke="#2563eb"/>
    <text x="2094" y="165" class="node-label" fill="#102a43">Two-boundary cleanup</text>
  </g>
</svg>
